<mxfile host="app.diagrams.net" modified="2024-03-14T11:57:13.182Z" agent="Mozilla/5.0 (X11; Linux x86_64; rv:121.0) Gecko/20100101 Firefox/121.0" etag="M3QskVx6xf0xUfxgo4eG" version="24.0.6" type="device">
  <diagram name="PÃ¡gina-1" id="iAV2FP48sQ9u86RexbNj">
    <mxGraphModel dx="1904" dy="663" grid="1" gridSize="10" guides="1" tooltips="1" connect="1" arrows="1" fold="1" page="1" pageScale="1" pageWidth="827" pageHeight="1169" math="0" shadow="0">
      <root>
        <mxCell id="0" />
        <mxCell id="1" parent="0" />
        <mxCell id="AjmIL7t-y6AQojZECjcP-7" value="" style="edgeStyle=orthogonalEdgeStyle;rounded=0;orthogonalLoop=1;jettySize=auto;html=1;endArrow=none;endFill=0;" edge="1" parent="1">
          <mxGeometry relative="1" as="geometry">
            <mxPoint x="440" y="110" as="sourcePoint" />
            <mxPoint x="500.0044827586207" y="199.97" as="targetPoint" />
            <Array as="points">
              <mxPoint x="440" y="200" />
            </Array>
          </mxGeometry>
        </mxCell>
        <mxCell id="AjmIL7t-y6AQojZECjcP-1" value="ParseAxiom" style="rounded=0;whiteSpace=wrap;html=1;" vertex="1" parent="1">
          <mxGeometry x="380" y="50" width="120" height="60" as="geometry" />
        </mxCell>
        <mxCell id="AjmIL7t-y6AQojZECjcP-9" value="" style="edgeStyle=orthogonalEdgeStyle;rounded=0;orthogonalLoop=1;jettySize=auto;html=1;endArrow=none;endFill=0;" edge="1" parent="1" source="AjmIL7t-y6AQojZECjcP-2" target="AjmIL7t-y6AQojZECjcP-1">
          <mxGeometry relative="1" as="geometry">
            <Array as="points">
              <mxPoint x="160" y="130" />
              <mxPoint x="440" y="130" />
            </Array>
          </mxGeometry>
        </mxCell>
        <mxCell id="AjmIL7t-y6AQojZECjcP-11" value="" style="edgeStyle=orthogonalEdgeStyle;rounded=0;orthogonalLoop=1;jettySize=auto;html=1;endArrow=none;endFill=0;" edge="1" parent="1" source="AjmIL7t-y6AQojZECjcP-2" target="AjmIL7t-y6AQojZECjcP-5">
          <mxGeometry relative="1" as="geometry" />
        </mxCell>
        <mxCell id="AjmIL7t-y6AQojZECjcP-13" style="edgeStyle=orthogonalEdgeStyle;rounded=0;orthogonalLoop=1;jettySize=auto;html=1;entryX=0.5;entryY=0;entryDx=0;entryDy=0;endArrow=none;endFill=0;" edge="1" parent="1" source="AjmIL7t-y6AQojZECjcP-2" target="AjmIL7t-y6AQojZECjcP-6">
          <mxGeometry relative="1" as="geometry" />
        </mxCell>
        <mxCell id="AjmIL7t-y6AQojZECjcP-14" style="edgeStyle=orthogonalEdgeStyle;rounded=0;orthogonalLoop=1;jettySize=auto;html=1;entryX=0.5;entryY=0;entryDx=0;entryDy=0;endArrow=none;endFill=0;" edge="1" parent="1" source="AjmIL7t-y6AQojZECjcP-2" target="AjmIL7t-y6AQojZECjcP-4">
          <mxGeometry relative="1" as="geometry">
            <mxPoint x="10" y="230" as="targetPoint" />
          </mxGeometry>
        </mxCell>
        <mxCell id="AjmIL7t-y6AQojZECjcP-2" value="ParseExpresion" style="rounded=0;whiteSpace=wrap;html=1;" vertex="1" parent="1">
          <mxGeometry x="100" y="150" width="120" height="60" as="geometry" />
        </mxCell>
        <mxCell id="AjmIL7t-y6AQojZECjcP-3" value="print(&quot;.&quot;)" style="rounded=0;whiteSpace=wrap;html=1;" vertex="1" parent="1">
          <mxGeometry x="390" y="160" width="120" height="60" as="geometry" />
        </mxCell>
        <mxCell id="AjmIL7t-y6AQojZECjcP-4" value="ParseLParen" style="rounded=0;whiteSpace=wrap;html=1;" vertex="1" parent="1">
          <mxGeometry x="-50" y="240" width="120" height="60" as="geometry" />
        </mxCell>
        <mxCell id="AjmIL7t-y6AQojZECjcP-17" value="2 posibilidades" style="edgeStyle=orthogonalEdgeStyle;rounded=0;orthogonalLoop=1;jettySize=auto;html=1;endArrow=none;endFill=0;dashed=1;" edge="1" parent="1" source="AjmIL7t-y6AQojZECjcP-5" target="AjmIL7t-y6AQojZECjcP-22">
          <mxGeometry relative="1" as="geometry">
            <mxPoint x="80" y="350" as="targetPoint" />
          </mxGeometry>
        </mxCell>
        <mxCell id="AjmIL7t-y6AQojZECjcP-5" value="ParseSecuencia" style="rounded=0;whiteSpace=wrap;html=1;" vertex="1" parent="1">
          <mxGeometry x="100" y="240" width="120" height="60" as="geometry" />
        </mxCell>
        <mxCell id="AjmIL7t-y6AQojZECjcP-6" value="ParseRParen" style="rounded=0;whiteSpace=wrap;html=1;" vertex="1" parent="1">
          <mxGeometry x="250" y="240" width="120" height="60" as="geometry" />
        </mxCell>
        <mxCell id="AjmIL7t-y6AQojZECjcP-18" style="edgeStyle=orthogonalEdgeStyle;rounded=0;orthogonalLoop=1;jettySize=auto;html=1;entryX=0.454;entryY=0.062;entryDx=0;entryDy=0;entryPerimeter=0;endArrow=none;endFill=0;dashed=1;" edge="1" parent="1" source="AjmIL7t-y6AQojZECjcP-5" target="AjmIL7t-y6AQojZECjcP-21">
          <mxGeometry relative="1" as="geometry">
            <mxPoint x="256.48000000000025" y="350.12" as="targetPoint" />
          </mxGeometry>
        </mxCell>
        <mxCell id="AjmIL7t-y6AQojZECjcP-21" value="=VP" style="ellipse;shape=cloud;whiteSpace=wrap;html=1;" vertex="1" parent="1">
          <mxGeometry x="204" y="350" width="120" height="80" as="geometry" />
        </mxCell>
        <mxCell id="AjmIL7t-y6AQojZECjcP-22" value="OPP" style="ellipse;shape=cloud;whiteSpace=wrap;html=1;" vertex="1" parent="1">
          <mxGeometry x="10" y="350" width="120" height="80" as="geometry" />
        </mxCell>
        <mxCell id="AjmIL7t-y6AQojZECjcP-25" style="edgeStyle=orthogonalEdgeStyle;rounded=0;orthogonalLoop=1;jettySize=auto;html=1;entryX=0.5;entryY=0;entryDx=0;entryDy=0;endArrow=none;endFill=0;" edge="1" parent="1" target="AjmIL7t-y6AQojZECjcP-27">
          <mxGeometry relative="1" as="geometry">
            <mxPoint x="230" y="610" as="targetPoint" />
            <mxPoint x="320" y="560.0344827586207" as="sourcePoint" />
          </mxGeometry>
        </mxCell>
        <mxCell id="AjmIL7t-y6AQojZECjcP-31" value="" style="edgeStyle=orthogonalEdgeStyle;rounded=0;orthogonalLoop=1;jettySize=auto;html=1;" edge="1" parent="1" target="AjmIL7t-y6AQojZECjcP-30">
          <mxGeometry relative="1" as="geometry">
            <mxPoint x="439.9999999999998" y="560.0344827586207" as="sourcePoint" />
          </mxGeometry>
        </mxCell>
        <mxCell id="AjmIL7t-y6AQojZECjcP-27" value="ParseOperator" style="rounded=0;whiteSpace=wrap;html=1;" vertex="1" parent="1">
          <mxGeometry x="100" y="625" width="120" height="60" as="geometry" />
        </mxCell>
        <mxCell id="AjmIL7t-y6AQojZECjcP-37" style="edgeStyle=orthogonalEdgeStyle;rounded=0;orthogonalLoop=1;jettySize=auto;html=1;" edge="1" parent="1" source="AjmIL7t-y6AQojZECjcP-28" target="AjmIL7t-y6AQojZECjcP-32">
          <mxGeometry relative="1" as="geometry" />
        </mxCell>
        <mxCell id="AjmIL7t-y6AQojZECjcP-28" value="ParseParametro" style="rounded=0;whiteSpace=wrap;html=1;" vertex="1" parent="1">
          <mxGeometry x="240" y="625" width="120" height="60" as="geometry" />
        </mxCell>
        <mxCell id="AjmIL7t-y6AQojZECjcP-29" value="ParseParametro" style="rounded=0;whiteSpace=wrap;html=1;" vertex="1" parent="1">
          <mxGeometry x="400" y="625" width="120" height="60" as="geometry" />
        </mxCell>
        <mxCell id="AjmIL7t-y6AQojZECjcP-30" value="print(operador)" style="rounded=0;whiteSpace=wrap;html=1;" vertex="1" parent="1">
          <mxGeometry x="550" y="625" width="120" height="60" as="geometry" />
        </mxCell>
        <mxCell id="AjmIL7t-y6AQojZECjcP-35" style="edgeStyle=orthogonalEdgeStyle;rounded=0;orthogonalLoop=1;jettySize=auto;html=1;" edge="1" parent="1" source="AjmIL7t-y6AQojZECjcP-32" target="AjmIL7t-y6AQojZECjcP-29">
          <mxGeometry relative="1" as="geometry">
            <Array as="points">
              <mxPoint x="460" y="590" />
            </Array>
          </mxGeometry>
        </mxCell>
        <mxCell id="AjmIL7t-y6AQojZECjcP-32" value="OPP" style="ellipse;shape=cloud;whiteSpace=wrap;html=1;" vertex="1" parent="1">
          <mxGeometry x="320" y="510" width="120" height="80" as="geometry" />
        </mxCell>
      </root>
    </mxGraphModel>
  </diagram>
</mxfile>
